<svg height="291" node-id="1" sillyvg="true" template-height="291" template-width="389" version="1.1" viewBox="0 0 389 291" width="389" xmlns="http://www.w3.org/2000/svg" xmlns:xlink="http://www.w3.org/1999/xlink"><defs node-id="142"><clipPath id="mask-2_14" node-id="48"><path d="M 156.63 100.28 L 159.34 102.46 L 161.70 104.02 L 165.80 106.40 L 164.66 107.40 L 164.07 108.55 L 163.97 109.91 L 169.34 111.11 L 172.77 110.38 L 174.63 110.88 L 176.28 110.81 L 178.34 114.77 L 184.17 109.71 L 181.83 106.70 L 178.83 103.63 L 175.08 100.49 L 171.49 98.79 L 169.12 97.70 L 166.87 96.82 L 163.67 95.77 L 162.28 95.67 L 161.71 95.95 L 161.55 96.68 L 159.83 96.04 L 158.64 95.93 L 157.95 96.31 L 157.82 96.60 L 157.96 96.86 L 157.29 96.64 L 156.52 96.59 L 156.24 96.78 L 156.09 97.11 L 156.12 97.49 L 156.41 97.86 L 158.15 98.84 L 157.11 98.74 L 156.44 98.95 L 156.25 99.15 L 156.20 99.47 L 156.30 99.83 L 156.63 100.28 Z" fill="#000000" fill-rule="evenodd" node-id="147" stroke="none" target-height="19.103409" target-width="28.083801" target-x="156.08969" target-y="95.66585"/></clipPath><clipPath id="mask-2_13" node-id="48"><path d="M 156.63 100.28 L 159.34 102.46 L 161.70 104.02 L 165.80 106.40 L 164.66 107.40 L 164.07 108.55 L 163.97 109.91 L 169.34 111.11 L 172.77 110.38 L 174.63 110.88 L 176.28 110.81 L 178.34 114.77 L 184.17 109.71 L 181.83 106.70 L 178.83 103.63 L 175.08 100.49 L 171.49 98.79 L 169.12 97.70 L 166.87 96.82 L 163.67 95.77 L 162.28 95.67 L 161.71 95.95 L 161.55 96.68 L 159.83 96.04 L 158.64 95.93 L 157.95 96.31 L 157.82 96.60 L 157.96 96.86 L 157.29 96.64 L 156.52 96.59 L 156.24 96.78 L 156.09 97.11 L 156.12 97.49 L 156.41 97.86 L 158.15 98.84 L 157.11 98.74 L 156.44 98.95 L 156.25 99.15 L 156.20 99.47 L 156.30 99.83 L 156.63 100.28 Z" fill="#000000" fill-rule="evenodd" node-id="147" stroke="none" target-height="19.103409" target-width="28.083801" target-x="156.08969" target-y="95.66585"/></clipPath><clipPath id="mask-2_12" node-id="48"><path d="M 156.63 100.28 L 159.34 102.46 L 161.70 104.02 L 165.80 106.40 L 164.66 107.40 L 164.07 108.55 L 163.97 109.91 L 169.34 111.11 L 172.77 110.38 L 174.63 110.88 L 176.28 110.81 L 178.34 114.77 L 184.17 109.71 L 181.83 106.70 L 178.83 103.63 L 175.08 100.49 L 171.49 98.79 L 169.12 97.70 L 166.87 96.82 L 163.67 95.77 L 162.28 95.67 L 161.71 95.95 L 161.55 96.68 L 159.83 96.04 L 158.64 95.93 L 157.95 96.31 L 157.82 96.60 L 157.96 96.86 L 157.29 96.64 L 156.52 96.59 L 156.24 96.78 L 156.09 97.11 L 156.12 97.49 L 156.41 97.86 L 158.15 98.84 L 157.11 98.74 L 156.44 98.95 L 156.25 99.15 L 156.20 99.47 L 156.30 99.83 L 156.63 100.28 Z" fill="#000000" fill-rule="evenodd" node-id="147" stroke="none" target-height="19.103409" target-width="28.083801" target-x="156.08969" target-y="95.66585"/></clipPath><clipPath id="mask-2_11" node-id="48"><path d="M 156.63 100.28 L 159.34 102.46 L 161.70 104.02 L 165.80 106.40 L 164.66 107.40 L 164.07 108.55 L 163.97 109.91 L 169.34 111.11 L 172.77 110.38 L 174.63 110.88 L 176.28 110.81 L 178.34 114.77 L 184.17 109.71 L 181.83 106.70 L 178.83 103.63 L 175.08 100.49 L 171.49 98.79 L 169.12 97.70 L 166.87 96.82 L 163.67 95.77 L 162.28 95.67 L 161.71 95.95 L 161.55 96.68 L 159.83 96.04 L 158.64 95.93 L 157.95 96.31 L 157.82 96.60 L 157.96 96.86 L 157.29 96.64 L 156.52 96.59 L 156.24 96.78 L 156.09 97.11 L 156.12 97.49 L 156.41 97.86 L 158.15 98.84 L 157.11 98.74 L 156.44 98.95 L 156.25 99.15 L 156.20 99.47 L 156.30 99.83 L 156.63 100.28 Z" fill="#000000" fill-rule="evenodd" node-id="147" stroke="none" target-height="19.103409" target-width="28.083801" target-x="156.08969" target-y="95.66585"/></clipPath><clipPath id="mask-2_10" node-id="48"><path d="M 156.63 100.28 L 159.34 102.46 L 161.70 104.02 L 165.80 106.40 L 164.66 107.40 L 164.07 108.55 L 163.97 109.91 L 169.34 111.11 L 172.77 110.38 L 174.63 110.88 L 176.28 110.81 L 178.34 114.77 L 184.17 109.71 L 181.83 106.70 L 178.83 103.63 L 175.08 100.49 L 171.49 98.79 L 169.12 97.70 L 166.87 96.82 L 163.67 95.77 L 162.28 95.67 L 161.71 95.95 L 161.55 96.68 L 159.83 96.04 L 158.64 95.93 L 157.95 96.31 L 157.82 96.60 L 157.96 96.86 L 157.29 96.64 L 156.52 96.59 L 156.24 96.78 L 156.09 97.11 L 156.12 97.49 L 156.41 97.86 L 158.15 98.84 L 157.11 98.74 L 156.44 98.95 L 156.25 99.15 L 156.20 99.47 L 156.30 99.83 L 156.63 100.28 Z" fill="#000000" fill-rule="evenodd" node-id="147" stroke="none" target-height="19.103409" target-width="28.083801" target-x="156.08969" target-y="95.66585"/></clipPath><clipPath id="mask-2_9" node-id="48"><path d="M 156.63 100.28 L 159.34 102.46 L 161.70 104.02 L 165.80 106.40 L 164.66 107.40 L 164.07 108.55 L 163.97 109.91 L 169.34 111.11 L 172.77 110.38 L 174.63 110.88 L 176.28 110.81 L 178.34 114.77 L 184.17 109.71 L 181.83 106.70 L 178.83 103.63 L 175.08 100.49 L 171.49 98.79 L 169.12 97.70 L 166.87 96.82 L 163.67 95.77 L 162.28 95.67 L 161.71 95.95 L 161.55 96.68 L 159.83 96.04 L 158.64 95.93 L 157.95 96.31 L 157.82 96.60 L 157.96 96.86 L 157.29 96.64 L 156.52 96.59 L 156.24 96.78 L 156.09 97.11 L 156.12 97.49 L 156.41 97.86 L 158.15 98.84 L 157.11 98.74 L 156.44 98.95 L 156.25 99.15 L 156.20 99.47 L 156.30 99.83 L 156.63 100.28 Z" fill="#000000" fill-rule="evenodd" node-id="147" stroke="none" target-height="19.103409" target-width="28.083801" target-x="156.08969" target-y="95.66585"/></clipPath><clipPath id="mask-2_8" node-id="48"><path d="M 156.63 100.28 L 159.34 102.46 L 161.70 104.02 L 165.80 106.40 L 164.66 107.40 L 164.07 108.55 L 163.97 109.91 L 169.34 111.11 L 172.77 110.38 L 174.63 110.88 L 176.28 110.81 L 178.34 114.77 L 184.17 109.71 L 181.83 106.70 L 178.83 103.63 L 175.08 100.49 L 171.49 98.79 L 169.12 97.70 L 166.87 96.82 L 163.67 95.77 L 162.28 95.67 L 161.71 95.95 L 161.55 96.68 L 159.83 96.04 L 158.64 95.93 L 157.95 96.31 L 157.82 96.60 L 157.96 96.86 L 157.29 96.64 L 156.52 96.59 L 156.24 96.78 L 156.09 97.11 L 156.12 97.49 L 156.41 97.86 L 158.15 98.84 L 157.11 98.74 L 156.44 98.95 L 156.25 99.15 L 156.20 99.47 L 156.30 99.83 L 156.63 100.28 Z" fill="#000000" fill-rule="evenodd" node-id="147" stroke="none" target-height="19.103409" target-width="28.083801" target-x="156.08969" target-y="95.66585"/></clipPath><clipPath id="mask-2" node-id="48"><path d="M 18.92 22.29 C 19.94 23.20 22.13 25.06 28.19 28.24 C 26.84 29.14 26.25 30.32 26.43 31.78 L 31.82 32.89 L 35.24 32.10 C 36.50 32.59 37.67 32.71 38.75 32.47 C 39.41 33.83 40.12 35.14 40.88 36.39 L 46.62 31.23 C 44.40 28.10 41.32 25.08 37.37 22.17 C 31.24 19.42 31.30 19.26 25.88 17.65 C 25.20 17.48 23.55 17.30 23.78 18.59 C 22.56 18.01 21.36 17.80 20.85 17.90 C 20.35 18.00 19.77 18.54 20.19 18.84 C 19.90 18.76 19.18 18.46 18.74 18.59 C 18.31 18.73 18.09 19.45 18.65 19.87 C 19.03 20.15 19.62 20.46 20.41 20.81 C 19.66 20.65 19.10 20.70 18.71 20.96 C 18.38 21.15 18.34 21.71 18.92 22.29 Z" fill="#000000" fill-rule="evenodd" node-id="147" stroke="none" target-height="19.09408" target-width="28.53406" target-x="18.089499" target-y="17.297457"/></clipPath><clipPath id="mask-4" node-id="58"><path d="M 177.67 106.39 L 178.39 106.91 L 178.42 107.39 L 177.78 108.03 L 175.67 109.02 L 173.74 110.01 L 172.33 111.18 L 169.97 113.63 L 168.74 114.55 L 167.20 115.06 L 166.69 115.37 L 166.20 115.96 L 165.86 116.69 L 165.72 117.50 L 158.52 115.61 L 159.62 114.14 L 159.69 113.40 L 159.40 112.05 L 158.47 109.73 L 158.31 108.53 L 158.76 107.58 L 159.63 106.79 L 160.84 106.09 L 163.34 104.97 L 164.47 105.52 L 166.13 106.51 L 166.72 107.03 L 166.76 107.30 L 166.03 108.30 L 165.95 108.68 L 166.09 108.91 L 167.28 109.39 L 168.45 109.45 L 169.53 109.22 L 170.11 108.92 L 171.35 107.62 L 172.95 106.76 L 175.00 106.32 L 177.67 106.39 Z" fill="#000000" fill-rule="evenodd" node-id="154" stroke="none" target-height="12.523865" target-width="20.111084" target-x="158.3107" target-y="104.97261"/></clipPath><clipPath id="mask-6_18" node-id="78"><path d="M 109.82 109.36 L 110.64 117.36 L 107.70 118.01 L 106.78 118.33 L 105.41 119.06 L 102.87 120.36 L 100.12 121.68 L 98.13 122.43 L 95.50 122.64 L 91.23 122.71 L 86.90 122.69 L 84.08 122.63 L 83.18 122.48 L 82.73 122.24 L 82.49 121.89 L 82.48 121.56 L 82.95 121.09 L 84.11 120.89 L 80.68 120.70 L 79.62 120.42 L 79.23 120.05 L 79.39 119.70 L 80.44 119.41 L 78.57 119.38 L 77.81 119.26 L 77.45 119.04 L 77.28 118.77 L 77.26 118.46 L 77.42 118.16 L 78.20 117.74 L 79.33 117.46 L 81.11 117.25 L 80.30 117.21 L 79.70 116.95 L 79.51 116.53 L 80.09 115.80 L 80.96 115.37 L 82.80 114.77 L 87.01 113.55 L 89.06 112.88 L 90.37 112.32 L 88.15 112.81 L 86.51 112.89 L 85.58 112.69 L 85.14 112.32 L 85.03 111.77 L 85.70 111.32 L 89.74 109.90 L 93.77 108.59 L 96.87 108.05 L 99.23 108.09 L 102.48 108.73 L 103.87 109.35 L 109.82 109.36 Z" fill="#000000" fill-rule="evenodd" node-id="161" stroke="none" target-height="14.655151" target-width="33.3752" target-x="77.261314" target-y="108.05159"/></clipPath><clipPath id="mask-6_17" node-id="78"><path d="M 109.82 109.36 L 110.64 117.36 L 107.70 118.01 L 106.78 118.33 L 105.41 119.06 L 102.87 120.36 L 100.12 121.68 L 98.13 122.43 L 95.50 122.64 L 91.23 122.71 L 86.90 122.69 L 84.08 122.63 L 83.18 122.48 L 82.73 122.24 L 82.49 121.89 L 82.48 121.56 L 82.95 121.09 L 84.11 120.89 L 80.68 120.70 L 79.62 120.42 L 79.23 120.05 L 79.39 119.70 L 80.44 119.41 L 78.57 119.38 L 77.81 119.26 L 77.45 119.04 L 77.28 118.77 L 77.26 118.46 L 77.42 118.16 L 78.20 117.74 L 79.33 117.46 L 81.11 117.25 L 80.30 117.21 L 79.70 116.95 L 79.51 116.53 L 80.09 115.80 L 80.96 115.37 L 82.80 114.77 L 87.01 113.55 L 89.06 112.88 L 90.37 112.32 L 88.15 112.81 L 86.51 112.89 L 85.58 112.69 L 85.14 112.32 L 85.03 111.77 L 85.70 111.32 L 89.74 109.90 L 93.77 108.59 L 96.87 108.05 L 99.23 108.09 L 102.48 108.73 L 103.87 109.35 L 109.82 109.36 Z" fill="#000000" fill-rule="evenodd" node-id="161" stroke="none" target-height="14.655151" target-width="33.3752" target-x="77.261314" target-y="108.05159"/></clipPath><clipPath id="mask-6_16" node-id="78"><path d="M 109.82 109.36 L 110.64 117.36 L 107.70 118.01 L 106.78 118.33 L 105.41 119.06 L 102.87 120.36 L 100.12 121.68 L 98.13 122.43 L 95.50 122.64 L 91.23 122.71 L 86.90 122.69 L 84.08 122.63 L 83.18 122.48 L 82.73 122.24 L 82.49 121.89 L 82.48 121.56 L 82.95 121.09 L 84.11 120.89 L 80.68 120.70 L 79.62 120.42 L 79.23 120.05 L 79.39 119.70 L 80.44 119.41 L 78.57 119.38 L 77.81 119.26 L 77.45 119.04 L 77.28 118.77 L 77.26 118.46 L 77.42 118.16 L 78.20 117.74 L 79.33 117.46 L 81.11 117.25 L 80.30 117.21 L 79.70 116.95 L 79.51 116.53 L 80.09 115.80 L 80.96 115.37 L 82.80 114.77 L 87.01 113.55 L 89.06 112.88 L 90.37 112.32 L 88.15 112.81 L 86.51 112.89 L 85.58 112.69 L 85.14 112.32 L 85.03 111.77 L 85.70 111.32 L 89.74 109.90 L 93.77 108.59 L 96.87 108.05 L 99.23 108.09 L 102.48 108.73 L 103.87 109.35 L 109.82 109.36 Z" fill="#000000" fill-rule="evenodd" node-id="161" stroke="none" target-height="14.655151" target-width="33.3752" target-x="77.261314" target-y="108.05159"/></clipPath><clipPath id="mask-6_15" node-id="78"><path d="M 109.82 109.36 L 110.64 117.36 L 107.70 118.01 L 106.78 118.33 L 105.41 119.06 L 102.87 120.36 L 100.12 121.68 L 98.13 122.43 L 95.50 122.64 L 91.23 122.71 L 86.90 122.69 L 84.08 122.63 L 83.18 122.48 L 82.73 122.24 L 82.49 121.89 L 82.48 121.56 L 82.95 121.09 L 84.11 120.89 L 80.68 120.70 L 79.62 120.42 L 79.23 120.05 L 79.39 119.70 L 80.44 119.41 L 78.57 119.38 L 77.81 119.26 L 77.45 119.04 L 77.28 118.77 L 77.26 118.46 L 77.42 118.16 L 78.20 117.74 L 79.33 117.46 L 81.11 117.25 L 80.30 117.21 L 79.70 116.95 L 79.51 116.53 L 80.09 115.80 L 80.96 115.37 L 82.80 114.77 L 87.01 113.55 L 89.06 112.88 L 90.37 112.32 L 88.15 112.81 L 86.51 112.89 L 85.58 112.69 L 85.14 112.32 L 85.03 111.77 L 85.70 111.32 L 89.74 109.90 L 93.77 108.59 L 96.87 108.05 L 99.23 108.09 L 102.48 108.73 L 103.87 109.35 L 109.82 109.36 Z" fill="#000000" fill-rule="evenodd" node-id="161" stroke="none" target-height="14.655151" target-width="33.3752" target-x="77.261314" target-y="108.05159"/></clipPath><clipPath id="mask-6_14" node-id="78"><path d="M 109.82 109.36 L 110.64 117.36 L 107.70 118.01 L 106.78 118.33 L 105.41 119.06 L 102.87 120.36 L 100.12 121.68 L 98.13 122.43 L 95.50 122.64 L 91.23 122.71 L 86.90 122.69 L 84.08 122.63 L 83.18 122.48 L 82.73 122.24 L 82.49 121.89 L 82.48 121.56 L 82.95 121.09 L 84.11 120.89 L 80.68 120.70 L 79.62 120.42 L 79.23 120.05 L 79.39 119.70 L 80.44 119.41 L 78.57 119.38 L 77.81 119.26 L 77.45 119.04 L 77.28 118.77 L 77.26 118.46 L 77.42 118.16 L 78.20 117.74 L 79.33 117.46 L 81.11 117.25 L 80.30 117.21 L 79.70 116.95 L 79.51 116.53 L 80.09 115.80 L 80.96 115.37 L 82.80 114.77 L 87.01 113.55 L 89.06 112.88 L 90.37 112.32 L 88.15 112.81 L 86.51 112.89 L 85.58 112.69 L 85.14 112.32 L 85.03 111.77 L 85.70 111.32 L 89.74 109.90 L 93.77 108.59 L 96.87 108.05 L 99.23 108.09 L 102.48 108.73 L 103.87 109.35 L 109.82 109.36 Z" fill="#000000" fill-rule="evenodd" node-id="161" stroke="none" target-height="14.655151" target-width="33.3752" target-x="77.261314" target-y="108.05159"/></clipPath><clipPath id="mask-6_13" node-id="78"><path d="M 109.82 109.36 L 110.64 117.36 L 107.70 118.01 L 106.78 118.33 L 105.41 119.06 L 102.87 120.36 L 100.12 121.68 L 98.13 122.43 L 95.50 122.64 L 91.23 122.71 L 86.90 122.69 L 84.08 122.63 L 83.18 122.48 L 82.73 122.24 L 82.49 121.89 L 82.48 121.56 L 82.95 121.09 L 84.11 120.89 L 80.68 120.70 L 79.62 120.42 L 79.23 120.05 L 79.39 119.70 L 80.44 119.41 L 78.57 119.38 L 77.81 119.26 L 77.45 119.04 L 77.28 118.77 L 77.26 118.46 L 77.42 118.16 L 78.20 117.74 L 79.33 117.46 L 81.11 117.25 L 80.30 117.21 L 79.70 116.95 L 79.51 116.53 L 80.09 115.80 L 80.96 115.37 L 82.80 114.77 L 87.01 113.55 L 89.06 112.88 L 90.37 112.32 L 88.15 112.81 L 86.51 112.89 L 85.58 112.69 L 85.14 112.32 L 85.03 111.77 L 85.70 111.32 L 89.74 109.90 L 93.77 108.59 L 96.87 108.05 L 99.23 108.09 L 102.48 108.73 L 103.87 109.35 L 109.82 109.36 Z" fill="#000000" fill-rule="evenodd" node-id="161" stroke="none" target-height="14.655151" target-width="33.3752" target-x="77.261314" target-y="108.05159"/></clipPath><clipPath id="mask-6_12" node-id="78"><path d="M 109.82 109.36 L 110.64 117.36 L 107.70 118.01 L 106.78 118.33 L 105.41 119.06 L 102.87 120.36 L 100.12 121.68 L 98.13 122.43 L 95.50 122.64 L 91.23 122.71 L 86.90 122.69 L 84.08 122.63 L 83.18 122.48 L 82.73 122.24 L 82.49 121.89 L 82.48 121.56 L 82.95 121.09 L 84.11 120.89 L 80.68 120.70 L 79.62 120.42 L 79.23 120.05 L 79.39 119.70 L 80.44 119.41 L 78.57 119.38 L 77.81 119.26 L 77.45 119.04 L 77.28 118.77 L 77.26 118.46 L 77.42 118.16 L 78.20 117.74 L 79.33 117.46 L 81.11 117.25 L 80.30 117.21 L 79.70 116.95 L 79.51 116.53 L 80.09 115.80 L 80.96 115.37 L 82.80 114.77 L 87.01 113.55 L 89.06 112.88 L 90.37 112.32 L 88.15 112.81 L 86.51 112.89 L 85.58 112.69 L 85.14 112.32 L 85.03 111.77 L 85.70 111.32 L 89.74 109.90 L 93.77 108.59 L 96.87 108.05 L 99.23 108.09 L 102.48 108.73 L 103.87 109.35 L 109.82 109.36 Z" fill="#000000" fill-rule="evenodd" node-id="161" stroke="none" target-height="14.655151" target-width="33.3752" target-x="77.261314" target-y="108.05159"/></clipPath><clipPath id="mask-6_11" node-id="78"><path d="M 109.82 109.36 L 110.64 117.36 L 107.70 118.01 L 106.78 118.33 L 105.41 119.06 L 102.87 120.36 L 100.12 121.68 L 98.13 122.43 L 95.50 122.64 L 91.23 122.71 L 86.90 122.69 L 84.08 122.63 L 83.18 122.48 L 82.73 122.24 L 82.49 121.89 L 82.48 121.56 L 82.95 121.09 L 84.11 120.89 L 80.68 120.70 L 79.62 120.42 L 79.23 120.05 L 79.39 119.70 L 80.44 119.41 L 78.57 119.38 L 77.81 119.26 L 77.45 119.04 L 77.28 118.77 L 77.26 118.46 L 77.42 118.16 L 78.20 117.74 L 79.33 117.46 L 81.11 117.25 L 80.30 117.21 L 79.70 116.95 L 79.51 116.53 L 80.09 115.80 L 80.96 115.37 L 82.80 114.77 L 87.01 113.55 L 89.06 112.88 L 90.37 112.32 L 88.15 112.81 L 86.51 112.89 L 85.58 112.69 L 85.14 112.32 L 85.03 111.77 L 85.70 111.32 L 89.74 109.90 L 93.77 108.59 L 96.87 108.05 L 99.23 108.09 L 102.48 108.73 L 103.87 109.35 L 109.82 109.36 Z" fill="#000000" fill-rule="evenodd" node-id="161" stroke="none" target-height="14.655151" target-width="33.3752" target-x="77.261314" target-y="108.05159"/></clipPath><clipPath id="mask-6_10" node-id="78"><path d="M 109.82 109.36 L 110.64 117.36 L 107.70 118.01 L 106.78 118.33 L 105.41 119.06 L 102.87 120.36 L 100.12 121.68 L 98.13 122.43 L 95.50 122.64 L 91.23 122.71 L 86.90 122.69 L 84.08 122.63 L 83.18 122.48 L 82.73 122.24 L 82.49 121.89 L 82.48 121.56 L 82.95 121.09 L 84.11 120.89 L 80.68 120.70 L 79.62 120.42 L 79.23 120.05 L 79.39 119.70 L 80.44 119.41 L 78.57 119.38 L 77.81 119.26 L 77.45 119.04 L 77.28 118.77 L 77.26 118.46 L 77.42 118.16 L 78.20 117.74 L 79.33 117.46 L 81.11 117.25 L 80.30 117.21 L 79.70 116.95 L 79.51 116.53 L 80.09 115.80 L 80.96 115.37 L 82.80 114.77 L 87.01 113.55 L 89.06 112.88 L 90.37 112.32 L 88.15 112.81 L 86.51 112.89 L 85.58 112.69 L 85.14 112.32 L 85.03 111.77 L 85.70 111.32 L 89.74 109.90 L 93.77 108.59 L 96.87 108.05 L 99.23 108.09 L 102.48 108.73 L 103.87 109.35 L 109.82 109.36 Z" fill="#000000" fill-rule="evenodd" node-id="161" stroke="none" target-height="14.655151" target-width="33.3752" target-x="77.261314" target-y="108.05159"/></clipPath><clipPath id="mask-6" node-id="78"><path d="M 33.15 2.10 L 34.10 10.08 C 31.94 10.54 30.65 10.88 30.26 11.11 C 29.67 11.46 23.39 14.96 21.69 15.37 C 19.98 15.79 9.69 15.86 7.65 15.82 C 6.30 15.79 5.92 15.20 6.03 14.77 C 6.13 14.34 6.80 14.07 7.65 14.07 C 4.70 14.07 3.04 13.99 2.75 13.32 C 2.67 13.00 3.07 12.77 3.95 12.65 C 2.58 12.71 1.71 12.68 1.32 12.55 C 0.74 12.36 0.59 11.83 0.91 11.46 C 1.69 10.73 3.95 10.56 4.58 10.49 C 3.56 10.62 2.18 10.09 3.53 9.05 C 4.70 8.15 11.61 6.61 13.76 5.40 C 10.80 6.32 8.23 6.32 8.40 4.94 C 8.49 4.64 10.05 3.99 13.09 2.99 C 17.00 1.39 20.15 0.73 22.54 1.01 C 24.93 1.29 26.48 1.68 27.19 2.19 L 33.15 2.10 Z" fill="#000000" fill-rule="evenodd" node-id="161" stroke="none" target-height="15.1236515" target-width="33.517128" target-x="0.5871747" target-y="0.73260564"/></clipPath><clipPath id="mask-8_10" node-id="133"><path d="M 337.86 197.57 L 336.73 186.97 L 336.38 179.04 L 336.63 173.27 L 337.29 169.21 L 338.22 166.46 L 339.34 164.67 L 340.60 163.59 L 341.16 163.44 L 341.93 163.51 L 342.67 163.89 L 343.52 164.84 L 344.18 166.20 L 344.80 168.60 L 345.12 171.46 L 345.18 175.81 L 344.88 180.56 L 344.78 182.49 L 344.79 182.97 L 344.97 183.21 L 345.31 183.28 L 345.67 183.13 L 346.03 182.68 L 346.82 180.39 L 348.67 174.55 L 349.14 173.70 L 349.70 173.28 L 350.41 173.20 L 351.54 173.60 L 352.72 174.68 L 353.55 176.19 L 353.96 178.24 L 353.88 179.67 L 353.41 181.28 L 352.49 183.12 L 350.38 186.05 L 348.53 187.90 L 346.91 188.95 L 345.44 189.40 L 344.06 189.36 L 343.65 197.57 L 337.86 197.57 Z" fill="#000000" fill-rule="evenodd" node-id="168" stroke="none" target-height="34.132828" target-width="17.574738" target-x="336.3822" target-y="163.44145"/></clipPath><clipPath id="mask-8_9" node-id="133"><path d="M 337.86 197.57 L 336.73 186.97 L 336.38 179.04 L 336.63 173.27 L 337.29 169.21 L 338.22 166.46 L 339.34 164.67 L 340.60 163.59 L 341.16 163.44 L 341.93 163.51 L 342.67 163.89 L 343.52 164.84 L 344.18 166.20 L 344.80 168.60 L 345.12 171.46 L 345.18 175.81 L 344.88 180.56 L 344.78 182.49 L 344.79 182.97 L 344.97 183.21 L 345.31 183.28 L 345.67 183.13 L 346.03 182.68 L 346.82 180.39 L 348.67 174.55 L 349.14 173.70 L 349.70 173.28 L 350.41 173.20 L 351.54 173.60 L 352.72 174.68 L 353.55 176.19 L 353.96 178.24 L 353.88 179.67 L 353.41 181.28 L 352.49 183.12 L 350.38 186.05 L 348.53 187.90 L 346.91 188.95 L 345.44 189.40 L 344.06 189.36 L 343.65 197.57 L 337.86 197.57 Z" fill="#000000" fill-rule="evenodd" node-id="168" stroke="none" target-height="34.132828" target-width="17.574738" target-x="336.3822" target-y="163.44145"/></clipPath><clipPath id="mask-8_8" node-id="133"><path d="M 337.86 197.57 L 336.73 186.97 L 336.38 179.04 L 336.63 173.27 L 337.29 169.21 L 338.22 166.46 L 339.34 164.67 L 340.60 163.59 L 341.16 163.44 L 341.93 163.51 L 342.67 163.89 L 343.52 164.84 L 344.18 166.20 L 344.80 168.60 L 345.12 171.46 L 345.18 175.81 L 344.88 180.56 L 344.78 182.49 L 344.79 182.97 L 344.97 183.21 L 345.31 183.28 L 345.67 183.13 L 346.03 182.68 L 346.82 180.39 L 348.67 174.55 L 349.14 173.70 L 349.70 173.28 L 350.41 173.20 L 351.54 173.60 L 352.72 174.68 L 353.55 176.19 L 353.96 178.24 L 353.88 179.67 L 353.41 181.28 L 352.49 183.12 L 350.38 186.05 L 348.53 187.90 L 346.91 188.95 L 345.44 189.40 L 344.06 189.36 L 343.65 197.57 L 337.86 197.57 Z" fill="#000000" fill-rule="evenodd" node-id="168" stroke="none" target-height="34.132828" target-width="17.574738" target-x="336.3822" target-y="163.44145"/></clipPath><clipPath id="mask-8_7" node-id="133"><path d="M 337.86 197.57 L 336.73 186.97 L 336.38 179.04 L 336.63 173.27 L 337.29 169.21 L 338.22 166.46 L 339.34 164.67 L 340.60 163.59 L 341.16 163.44 L 341.93 163.51 L 342.67 163.89 L 343.52 164.84 L 344.18 166.20 L 344.80 168.60 L 345.12 171.46 L 345.18 175.81 L 344.88 180.56 L 344.78 182.49 L 344.79 182.97 L 344.97 183.21 L 345.31 183.28 L 345.67 183.13 L 346.03 182.68 L 346.82 180.39 L 348.67 174.55 L 349.14 173.70 L 349.70 173.28 L 350.41 173.20 L 351.54 173.60 L 352.72 174.68 L 353.55 176.19 L 353.96 178.24 L 353.88 179.67 L 353.41 181.28 L 352.49 183.12 L 350.38 186.05 L 348.53 187.90 L 346.91 188.95 L 345.44 189.40 L 344.06 189.36 L 343.65 197.57 L 337.86 197.57 Z" fill="#000000" fill-rule="evenodd" node-id="168" stroke="none" target-height="34.132828" target-width="17.574738" target-x="336.3822" target-y="163.44145"/></clipPath><clipPath id="mask-8_6" node-id="133"><path d="M 337.86 197.57 L 336.73 186.97 L 336.38 179.04 L 336.63 173.27 L 337.29 169.21 L 338.22 166.46 L 339.34 164.67 L 340.60 163.59 L 341.16 163.44 L 341.93 163.51 L 342.67 163.89 L 343.52 164.84 L 344.18 166.20 L 344.80 168.60 L 345.12 171.46 L 345.18 175.81 L 344.88 180.56 L 344.78 182.49 L 344.79 182.97 L 344.97 183.21 L 345.31 183.28 L 345.67 183.13 L 346.03 182.68 L 346.82 180.39 L 348.67 174.55 L 349.14 173.70 L 349.70 173.28 L 350.41 173.20 L 351.54 173.60 L 352.72 174.68 L 353.55 176.19 L 353.96 178.24 L 353.88 179.67 L 353.41 181.28 L 352.49 183.12 L 350.38 186.05 L 348.53 187.90 L 346.91 188.95 L 345.44 189.40 L 344.06 189.36 L 343.65 197.57 L 337.86 197.57 Z" fill="#000000" fill-rule="evenodd" node-id="168" stroke="none" target-height="34.132828" target-width="17.574738" target-x="336.3822" target-y="163.44145"/></clipPath><clipPath id="mask-8" node-id="133"><path d="M 5.86 35.35 C 3.21 15.31 4.12 3.99 8.60 1.37 C 9.93 0.78 13.52 1.23 13.18 13.59 C 12.75 20.20 12.75 20.54 12.79 20.75 C 12.90 21.18 13.65 21.23 14.03 20.46 C 14.40 19.69 14.90 17.81 16.67 12.32 C 17.89 8.30 24.97 13.85 20.49 20.90 C 17.51 25.60 14.70 27.68 12.06 27.13 L 11.65 35.35 L 5.86 35.35 Z" fill="#000000" fill-rule="evenodd" node-id="168" stroke="none" target-height="34.574863" target-width="21.763123" target-x="3.208644" target-y="0.7771929"/></clipPath></defs><g node-id="430"><g node-id="431"><g node-id="432"><g node-id="433"><path d="M 77.79 198.85 L 75.76 198.17 L 73.43 197.08 L 70.76 195.50 L 66.87 192.78 L 62.62 189.37 L 58.43 185.66 L 54.25 181.69 L 46.54 173.70 L 40.35 166.63 L 36.57 161.73 L 37.11 159.95 L 38.40 155.73 L 39.92 150.76 L 41.14 146.71 L 39.25 148.63 L 35.99 151.67 L 32.79 154.34 L 31.49 155.15 L 31.06 155.17 L 28.46 151.96 L 26.46 149.01 L 24.79 146.08 L 23.68 143.78 L 22.52 140.64 L 24.07 139.01 L 27.16 136.11 L 30.77 132.80 L 33.85 129.94 L 32.32 130.82 L 29.14 132.80 L 25.42 135.10 L 22.29 136.95 L 21.12 137.53 L 20.87 137.57 L 19.77 135.83 L 18.67 133.40 L 17.76 130.82 L 17.10 128.29 L 16.74 125.87 L 16.77 124.28 L 18.52 123.27 L 22.63 121.05 L 27.52 118.39 L 31.59 116.11 L 33.02 115.22 L 33.24 115.00 L 32.86 114.90 L 31.29 115.27 L 27.00 116.86 L 21.94 118.92 L 17.69 120.58 L 16.13 121.05 L 15.82 121.01 L 15.09 118.43 L 14.22 114.94 L 13.66 112.42 L 13.77 111.51 L 14.41 110.13 L 16.40 107.17 L 18.36 104.47 L 18.97 103.36 L 19.00 102.92 L 17.69 101.84 L 15.41 100.29 L 13.25 98.83 L 12.47 98.21 L 12.32 97.99 L 12.59 93.06 L 13.36 87.77 L 14.58 82.49 L 16.28 77.31 L 18.48 72.38 L 21.11 67.96 L 23.18 65.27 L 25.42 62.97 L 27.85 61.04 L 30.22 70.35 L 33.04 79.18 L 36.30 87.53 L 40.00 95.45 L 44.13 102.96 L 48.70 110.08 L 53.71 116.83 L 59.18 123.22 L 65.10 129.28 L 71.51 135.00 L 78.43 140.40 L 85.88 145.47 L 93.88 150.22 L 102.48 154.65 L 111.71 158.74 L 109.11 167.93 L 106.43 175.52 L 103.70 181.73 L 100.94 186.73 L 98.18 190.70 L 95.42 193.78 L 92.66 196.10 L 89.87 197.76 L 87.04 198.85 L 84.11 199.39 L 81.05 199.40 L 77.79 198.85 Z" fill="#c0dcff" fill-rule="evenodd" group-id="1,2,3,4" id="路径-475" node-id="15" stroke="none" target-height="138.36084" target-width="99.38926" target-x="12.319278" target-y="61.039276"/></g><g node-id="434"><path d="M 82.96 190.44 L 80.28 191.09 L 76.50 191.34 L 72.45 191.18 L 67.89 190.71 L 63.27 190.02 L 58.78 189.17 L 50.84 187.32 L 45.76 185.76 L 45.37 184.56 L 44.44 181.70 L 43.35 178.33 L 42.45 175.60 L 42.22 177.26 L 41.76 179.91 L 41.18 182.34 L 40.84 183.18 L 40.62 183.33 L 36.58 182.24 L 33.48 181.20 L 30.85 180.09 L 29.80 179.45 L 30.19 177.10 L 31.08 172.94 L 31.90 169.07 L 31.22 170.69 L 29.93 173.99 L 28.63 177.20 L 27.89 178.61 L 24.63 177.07 L 19.70 174.26 L 14.88 171.10 L 12.92 169.57 L 11.92 168.55 L 12.30 166.85 L 13.16 164.42 L 13.89 162.19 L 14.04 161.35 L 13.93 161.11 L 13.63 161.18 L 12.97 161.72 L 11.49 163.30 L 10.11 164.88 L 9.45 165.47 L 7.14 162.95 L 5.22 160.30 L 3.66 157.50 L 2.40 154.54 L 1.45 151.58 L 0.81 148.61 L 0.31 144.14 L 0.36 140.02 L 0.91 136.10 L 1.81 132.93 L 7.99 138.22 L 14.26 142.80 L 20.64 146.73 L 27.13 150.02 L 33.76 152.70 L 40.55 154.79 L 47.53 156.31 L 54.71 157.24 L 62.13 157.58 L 69.81 157.31 L 77.80 156.41 L 86.11 154.85 L 88.59 162.12 L 90.15 168.19 L 90.93 173.22 L 91.09 177.36 L 90.73 180.77 L 89.94 183.57 L 88.78 185.86 L 87.25 187.74 L 85.33 189.26 L 82.96 190.44 Z" fill="#c0dcff" fill-rule="evenodd" group-id="1,2,3,5" id="路径-475" node-id="16" stroke="none" target-height="58.40239" target-width="90.77344" target-x="0.31399536" target-y="132.93309"/></g><g node-id="435"><path d="M 44.33 231.21 L 44.33 226.94 L 278.67 190.26 L 388.43 230.38 L 388.43 235.62 L 158.14 290.36 Z" fill="#89b6f1" fill-rule="evenodd" group-id="1,2,3,6" id="路径-442" node-id="18" stroke="none" target-height="100.10155" target-width="344.09955" target-x="44.33438" target-y="190.26262"/><path d="M 51.52 231.21 L 278.67 184.44 L 388.43 230.38 L 158.26 285.10 Z" fill="#a6cdff" fill-rule="evenodd" group-id="1,2,3,6" id="路径-442" node-id="19" stroke="none" target-height="100.660355" target-width="336.9169" target-x="51.51704" target-y="184.44444"/><path d="M 93.48 222.49 L 98.84 221.40 L 207.69 273.41 L 203.60 274.38 Z" fill="#84afe7" fill-rule="evenodd" group-id="1,2,3,6" id="路径-449" node-id="20" stroke="none" target-height="52.975845" target-width="114.21276" target-x="93.47559" target-y="221.40358"/><path d="M 72.50 241.81 L 69.59 240.34 L 296.42 191.89 L 299.10 193.05 Z" fill="#84afe7" fill-rule="evenodd" group-id="1,2,3,6" id="路径-449" node-id="21" stroke="none" target-height="49.921448" target-width="229.50633" target-x="69.59163" target-y="191.89087"/><path d="M 90.98 251.14 L 88.07 249.67 L 315.23 199.75 L 317.94 200.90 Z" fill="#84afe7" fill-rule="evenodd" group-id="1,2,3,6" id="路径-449" node-id="22" stroke="none" target-height="51.390335" target-width="229.86874" target-x="88.068184" target-y="199.75241"/><path d="M 146.10 278.94 L 143.20 277.46 L 372.02 223.51 L 374.72 224.64 Z" fill="#84afe7" fill-rule="evenodd" group-id="1,2,3,6" id="路径-449" node-id="23" stroke="none" target-height="55.423065" target-width="231.5238" target-x="143.19724" target-y="223.51318"/><path d="M 128.76 270.21 L 125.85 268.74 L 353.01 215.56 L 355.75 216.69 Z" fill="#84afe7" fill-rule="evenodd" group-id="1,2,3,6" id="路径-449" node-id="24" stroke="none" target-height="54.65126" target-width="229.90294" target-x="125.8492" target-y="215.55937"/><path d="M 109.50 260.51 L 106.59 259.04 L 333.68 207.50 L 336.36 208.66 Z" fill="#84afe7" fill-rule="evenodd" group-id="1,2,3,6" id="路径-449" node-id="25" stroke="none" target-height="53.01744" target-width="229.77206" target-x="106.589935" target-y="207.49623"/><path d="M 131.27 214.55 L 135.96 213.64 L 246.57 264.15 L 242.48 265.12 Z" fill="#84afe7" fill-rule="evenodd" group-id="1,2,3,6" id="路径-449" node-id="26" stroke="none" target-height="51.480362" target-width="115.29904" target-x="131.27365" target-y="213.6389"/><path d="M 171.22 206.30 L 176.25 205.33 L 284.81 255.06 L 280.40 256.07 Z" fill="#84afe7" fill-rule="evenodd" group-id="1,2,3,6" id="路径-449" node-id="27" stroke="none" target-height="50.73935" target-width="113.589874" target-x="171.21646" target-y="205.32782"/><path d="M 206.92 198.94 L 211.96 197.96 L 321.62 246.30 L 317.21 247.31 Z" fill="#84afe7" fill-rule="evenodd" group-id="1,2,3,6" id="路径-449" node-id="28" stroke="none" target-height="49.342438" target-width="114.69887" target-x="206.92387" target-y="197.96384"/><path d="M 239.37 192.45 L 244.41 191.47 L 355.25 238.27 L 350.96 239.29 Z" fill="#84afe7" fill-rule="evenodd" group-id="1,2,3,6" id="路径-449" node-id="29" stroke="none" target-height="47.814697" target-width="115.87329" target-x="239.3743" target-y="191.47223"/></g><path d="M 305.33 50.00 L 305.05 53.04 L 304.29 55.83 L 303.06 58.41 L 301.40 60.75 L 299.42 62.73 L 297.08 64.39 L 294.50 65.62 L 291.71 66.38 L 288.67 66.67 L 285.62 66.38 L 282.84 65.62 L 280.25 64.39 L 277.92 62.73 L 275.93 60.75 L 274.28 58.41 L 273.04 55.83 L 272.28 53.04 L 272.00 50.00 L 272.28 46.96 L 273.04 44.17 L 274.28 41.59 L 275.93 39.25 L 277.92 37.27 L 280.25 35.61 L 282.84 34.38 L 285.62 33.62 L 288.67 33.33 L 291.71 33.62 L 294.50 34.38 L 297.08 35.61 L 299.42 37.27 L 301.40 39.25 L 303.06 41.59 L 304.29 44.17 L 305.05 46.96 L 305.33 50.00 Z" fill="#a6cdff" fill-rule="evenodd" group-id="1,2,3" id="椭圆形" node-id="30" stroke="none" target-height="33.333332" target-width="33.333344" target-x="272" target-y="33.333332"/><path d="M 210.89 15.56 L 212.97 15.27 L 214.81 14.49 L 216.39 13.28 L 217.60 11.70 L 218.38 9.86 L 218.67 7.78 L 218.38 5.69 L 217.60 3.85 L 216.39 2.28 L 214.81 1.06 L 212.97 0.28 L 210.89 0.00 L 208.81 0.28 L 206.96 1.06 L 205.39 2.28 L 204.17 3.85 L 203.39 5.69 L 203.11 7.78 L 203.39 9.86 L 204.17 11.70 L 205.39 13.28 L 206.96 14.49 L 208.81 15.27 L 210.89 15.56 Z" fill="#a6cdff" fill-rule="evenodd" group-id="1,2,3" id="椭圆形" node-id="31" stroke="none" target-height="15.555555" target-width="15.555557" target-x="203.11111" target-y="0"/><path d="M 134.22 31.11 L 134.03 33.14 L 133.53 35.00 L 132.71 36.72 L 131.60 38.28 L 130.28 39.60 L 128.72 40.71 L 127.00 41.53 L 125.14 42.03 L 123.11 42.22 L 121.08 42.03 L 119.22 41.53 L 117.50 40.71 L 115.94 39.60 L 114.62 38.28 L 113.52 36.72 L 112.70 35.00 L 112.19 33.14 L 112.00 31.11 L 112.19 29.08 L 112.70 27.22 L 113.52 25.50 L 114.62 23.94 L 115.94 22.62 L 117.50 21.52 L 119.22 20.70 L 121.08 20.19 L 123.11 20.00 L 125.14 20.19 L 127.00 20.70 L 128.72 21.52 L 130.28 22.62 L 131.60 23.94 L 132.71 25.50 L 133.53 27.22 L 134.03 29.08 L 134.22 31.11 Z" fill="#a6cdff" fill-rule="evenodd" group-id="1,2,3" id="椭圆形" node-id="32" stroke="none" target-height="22.222221" target-width="22.222229" target-x="112" target-y="20"/><path d="M 45.99 47.31 L 45.33 226.33 L 52.55 230.56 L 187.06 201.87 L 276.94 183.78 L 284.71 16.94 L 272.34 14.33 Z" fill="#93c1ff" fill-rule="evenodd" group-id="1,2,3,7" id="路径-444" node-id="34" stroke="none" target-height="216.224" target-width="239.38045" target-x="45.333332" target-y="14.334513"/><path d="M 53.52 51.56 L 52.55 230.56 L 280.83 183.67 L 284.71 16.94 Z" fill="#5391e3" fill-rule="evenodd" group-id="1,2,3,7" id="路径-444" node-id="35" stroke="none" target-height="213.6181" target-width="232.16214" target-x="52.551636" target-y="16.94041"/><path d="M 65.88 160.06 L 65.90 202.44 L 124.14 190.50 L 124.12 149.75 Z" fill="#ffffff" fill-rule="evenodd" group-id="1,2,3,8,12,29" id="路径-444" node-id="38" stroke="none" target-height="52.693207" target-width="58.255768" target-x="65.881546" target-y="149.75098"/><path d="M 103.68 181.27 L 105.83 185.04 L 106.02 185.12 L 107.08 185.12 L 109.89 184.67 L 111.45 184.18 L 112.84 183.50 L 113.95 182.57 L 114.52 181.46 L 112.00 178.34 L 109.23 174.24 L 108.28 171.76 L 106.88 169.68 L 104.99 167.93 L 102.55 166.49 L 99.43 165.39 L 97.52 165.51 L 95.97 165.84 L 93.29 166.84 L 92.32 167.69 L 92.05 168.24 L 92.06 168.75 L 92.36 169.16 L 93.17 169.51 L 92.17 169.94 L 89.48 170.94 L 86.69 172.30 L 85.70 173.12 L 85.39 173.82 L 85.77 174.54 L 87.18 175.37 L 91.30 176.78 L 95.81 178.26 L 97.71 179.15 L 98.75 180.01 L 99.61 180.70 L 101.14 181.16 L 103.68 181.27 Z" fill="#ffe0c4" fill-rule="evenodd" group-id="1,2,3,8,12" id="路径-452" node-id="39" stroke="none" target-height="19.733551" target-width="29.134674" target-x="85.38837" target-y="165.39023"/><path d="M 97.29 167.47 L 96.74 168.23 L 95.83 168.86 L 94.47 169.34 L 94.92 169.51 L 95.44 169.47 L 97.14 168.22 L 97.45 167.62 L 97.38 167.26 L 97.29 167.47 Z" fill="#f59f57" fill-rule="evenodd" group-id="1,2,3,8,12" id="路径-454" node-id="40" stroke="none" target-height="2.2417145" target-width="2.9821014" target-x="94.465164" target-y="167.2637"/><path d="M 76.53 175.90 L 78.99 174.75 L 81.74 173.71 L 82.76 172.75 L 83.53 172.21 L 84.97 171.50 L 86.75 170.86 L 89.72 170.07 L 93.20 169.38 L 98.37 168.60 L 99.27 169.06 L 99.64 169.53 L 99.66 170.04 L 101.41 170.21 L 102.02 170.47 L 102.37 170.86 L 102.36 171.51 L 101.52 172.50 L 103.15 172.50 L 103.95 172.73 L 104.28 173.06 L 104.46 173.81 L 104.31 174.45 L 103.79 175.05 L 104.53 175.14 L 105.15 175.38 L 105.56 175.79 L 105.63 176.41 L 105.36 177.06 L 104.96 177.51 L 104.19 177.88 L 104.46 178.29 L 104.35 179.07 L 103.76 179.83 L 102.20 180.71 L 99.08 181.50 L 95.48 181.95 L 92.46 181.97 L 89.96 181.57 L 88.59 181.22 L 87.52 181.06 L 84.86 181.88 L 82.46 182.82 L 76.53 175.90 Z" fill="#ffc594" fill-rule="evenodd" group-id="1,2,3,8,12" id="路径-450" node-id="41" stroke="none" target-height="14.213501" target-width="29.104355" target-x="76.52588" target-y="168.60178"/><path d="M 94.36 171.23 L 99.69 170.04 L 94.47 171.57 L 94.20 171.46 L 94.36 171.23 Z" fill="#f59f57" fill-rule="evenodd" group-id="1,2,3,8,12" id="路径-451" node-id="42" stroke="none" target-height="1.5349579" target-width="5.487961" target-x="94.19742" target-y="170.0366"/><path d="M 96.29 173.66 L 101.61 172.47 L 96.40 174.00 L 96.13 173.89 L 96.29 173.66 Z" fill="#f59f57" fill-rule="evenodd" group-id="1,2,3,8,12" id="路径-451" node-id="43" stroke="none" target-height="1.5349426" target-width="5.487953" target-x="96.12584" target-y="172.4659"/><path d="M 97.55 176.72 L 103.79 175.05 L 97.66 177.06 L 97.39 176.95 L 97.55 176.72 Z" fill="#f59f57" fill-rule="evenodd" group-id="1,2,3,8,12" id="路径-451" node-id="44" stroke="none" target-height="2.0087738" target-width="6.4071198" target-x="97.38603" target-y="175.0525"/><path d="M 94.57 180.25 L 95.56 179.73 L 97.01 179.24 L 104.19 177.88 L 97.13 179.65 L 95.69 180.20 L 94.67 180.66 L 94.41 180.55 L 94.57 180.25 Z" fill="#f59f57" fill-rule="evenodd" group-id="1,2,3,8,12" id="路径-451" node-id="45" stroke="none" target-height="2.7774963" target-width="9.782845" target-x="94.40955" target-y="177.88397"/><path d="M 139.49 88.69 L 137.70 130.66 L 196.47 121.65 L 197.91 80.75 Z" fill="#ffffff" fill-rule="evenodd" group-id="1,2,3,8,13,30" id="路径-444" node-id="47" stroke="none" target-height="49.908333" target-width="60.212585" target-x="137.70045" target-y="80.752144"/><path d="M 156.63 100.28 L 159.34 102.46 L 161.70 104.02 L 165.80 106.40 L 164.66 107.40 L 164.07 108.55 L 163.97 109.91 L 169.34 111.11 L 172.77 110.38 L 174.63 110.88 L 176.28 110.81 L 178.34 114.77 L 184.17 109.71 L 181.83 106.70 L 178.83 103.63 L 175.08 100.49 L 171.49 98.79 L 169.12 97.70 L 166.87 96.82 L 163.67 95.77 L 162.28 95.67 L 161.71 95.95 L 161.55 96.68 L 159.83 96.04 L 158.64 95.93 L 157.95 96.31 L 157.82 96.60 L 157.96 96.86 L 157.29 96.64 L 156.52 96.59 L 156.24 96.78 L 156.09 97.11 L 156.12 97.49 L 156.41 97.86 L 158.15 98.84 L 157.11 98.74 L 156.44 98.95 L 156.25 99.15 L 156.20 99.47 L 156.30 99.83 L 156.63 100.28 Z" fill="#f7b781" fill-rule="evenodd" group-id="1,2,3,8,13,31" node-id="226" stroke="none" target-height="19.103409" target-width="28.083801" target-x="156.08969" target-y="95.66585"/><g clip-path="url(#mask-2_8)" group-id="1,2,3,8,13,32" node-id="229"><path d="M 158.04 98.78 L 165.19 103.01 L 165.48 102.99 L 165.44 102.76 L 158.04 98.78 Z" fill="#f59f57" fill-rule="evenodd" group-id="1,2,3,8,13,32" id="路径-457" node-id="51" stroke="none" target-height="4.2351227" target-width="7.4403076" target-x="158.03934" target-y="98.7789"/></g><g clip-path="url(#mask-2_9)" group-id="1,2,3,8,13,33" node-id="233"><path d="M 157.87 96.82 L 166.50 101.22 L 166.69 101.19 L 166.66 101.02 L 162.43 98.92 L 157.87 96.82 Z" fill="#f59f57" fill-rule="evenodd" group-id="1,2,3,8,13,33" id="路径-457" node-id="52" stroke="none" target-height="4.3985443" target-width="8.821823" target-x="157.87193" target-y="96.818405"/></g><g clip-path="url(#mask-2_10)" group-id="1,2,3,8,13,34" node-id="237"><path d="M 161.55 96.68 L 167.15 99.43 L 167.36 99.40 L 167.31 99.24 L 161.55 96.68 Z" fill="#f59f57" fill-rule="evenodd" group-id="1,2,3,8,13,34" id="路径-457" node-id="53" stroke="none" target-height="2.757515" target-width="5.81102" target-x="161.54935" target-y="96.67625"/></g><g clip-path="url(#mask-2_11)" group-id="1,2,3,8,13,35" node-id="241"><path d="M 164.23 95.91 L 164.57 96.55 L 164.46 97.41 L 164.17 97.63 L 163.57 97.57 L 161.38 96.58 L 161.17 95.34 L 163.24 95.52 L 164.23 95.91 Z" fill="#ffd8b2" fill-rule="evenodd" group-id="1,2,3,8,13,35" id="路径-456" node-id="54" stroke="none" target-height="2.289322" target-width="3.40036" target-x="161.166" target-y="95.33729"/></g><g clip-path="url(#mask-2_12)" group-id="1,2,3,8,13,36" node-id="245"><path d="M 160.37 95.90 L 160.65 96.53 L 160.58 97.37 L 160.32 97.60 L 159.77 97.57 L 157.56 96.65 L 157.81 95.99 L 159.45 95.64 L 160.37 95.90 Z" fill="#ffd8b2" fill-rule="evenodd" group-id="1,2,3,8,13,36" id="路径-456" node-id="55" stroke="none" target-height="1.9587555" target-width="3.0930786" target-x="157.55818" target-y="95.63799"/></g><g clip-path="url(#mask-2_13)" group-id="1,2,3,8,13,37" node-id="249"><path d="M 158.18 96.90 L 158.46 97.46 L 158.37 98.19 L 158.10 98.40 L 157.52 98.41 L 156.27 97.99 L 155.35 97.32 L 156.15 96.47 L 157.31 96.52 L 158.18 96.90 Z" fill="#ffd8b2" fill-rule="evenodd" group-id="1,2,3,8,13,37" id="路径-456" node-id="56" stroke="none" target-height="1.9474182" target-width="3.1030884" target-x="155.35442" target-y="96.466774"/></g><g clip-path="url(#mask-2_14)" group-id="1,2,3,8,13,38" node-id="253"><path d="M 158.44 99.01 L 158.82 99.49 L 158.92 100.13 L 158.68 100.61 L 157.90 100.73 L 156.71 100.26 L 156.01 99.47 L 156.51 98.77 L 157.59 98.67 L 158.44 99.01 Z" fill="#ffd8b2" fill-rule="evenodd" group-id="1,2,3,8,13,38" id="路径-456" node-id="57" stroke="none" target-height="2.0548325" target-width="2.9136047" target-x="156.01051" target-y="98.67378"/></g><path d="M 177.67 106.39 L 178.39 106.91 L 178.42 107.39 L 177.78 108.03 L 175.67 109.02 L 173.74 110.01 L 172.33 111.18 L 169.97 113.63 L 168.74 114.55 L 167.20 115.06 L 166.69 115.37 L 166.20 115.96 L 165.86 116.69 L 165.72 117.50 L 158.52 115.61 L 159.62 114.14 L 159.69 113.40 L 159.40 112.05 L 158.47 109.73 L 158.31 108.53 L 158.76 107.58 L 159.63 106.79 L 160.84 106.09 L 163.34 104.97 L 164.47 105.52 L 166.13 106.51 L 166.72 107.03 L 166.76 107.30 L 166.03 108.30 L 165.95 108.68 L 166.09 108.91 L 167.28 109.39 L 168.45 109.45 L 169.53 109.22 L 170.11 108.92 L 171.35 107.62 L 172.95 106.76 L 175.00 106.32 L 177.67 106.39 Z" fill="#ffc594" fill-rule="evenodd" group-id="1,2,3,8,13,39" node-id="258" stroke="none" target-height="12.523865" target-width="20.111084" target-x="158.3107" target-y="104.97261"/><g clip-path="url(#mask-4)" group-id="1,2,3,8,13,40" node-id="261"><path d="M 178.10 106.64 L 177.48 106.78 L 176.83 107.12 L 176.05 107.88 L 176.09 108.24 L 176.52 108.73 L 178.62 107.86 L 178.47 106.87 L 178.10 106.64 Z" fill="#ffd8b2" fill-rule="evenodd" group-id="1,2,3,8,13,40" id="路径-458" node-id="61" stroke="none" target-height="2.0913239" target-width="2.5706482" target-x="176.0527" target-y="106.63675"/></g><path d="M 138.60 146.83 L 138.62 188.90 L 195.55 177.44 L 196.99 136.54 Z" fill="#ffffff" fill-rule="evenodd" group-id="1,2,3,8,14,41" id="路径-444" node-id="63" stroke="none" target-height="52.351456" target-width="58.386307" target-x="138.60213" target-y="136.54381"/><path d="M 154.34 158.49 L 154.85 156.68 L 155.73 155.26 L 156.99 154.15 L 158.70 153.33 L 161.00 152.83 L 165.07 156.73 L 168.39 159.72 L 175.60 159.98 L 181.30 158.73 L 182.68 158.66 L 183.14 159.02 L 183.29 159.62 L 183.06 160.26 L 182.28 160.89 L 180.62 161.52 L 177.33 162.38 L 175.58 162.79 L 175.69 162.82 L 176.81 162.87 L 178.67 162.76 L 182.50 162.31 L 185.08 162.05 L 186.21 162.28 L 186.73 162.65 L 186.87 163.16 L 186.77 163.55 L 186.40 163.90 L 184.57 164.58 L 183.15 164.90 L 181.36 165.14 L 176.97 165.25 L 177.66 165.49 L 180.40 165.77 L 187.50 165.94 L 188.41 166.31 L 188.66 166.96 L 188.60 167.36 L 188.18 167.89 L 187.39 168.28 L 185.41 168.60 L 183.35 168.56 L 180.14 168.09 L 175.38 167.00 L 180.06 168.78 L 183.41 169.63 L 184.86 169.98 L 185.64 170.32 L 186.22 170.74 L 186.44 171.03 L 186.55 171.36 L 186.43 171.75 L 186.18 172.06 L 185.57 172.41 L 184.75 172.59 L 183.24 172.56 L 180.01 171.96 L 176.77 170.73 L 173.47 168.79 L 174.31 170.47 L 175.63 172.21 L 176.55 173.57 L 176.94 174.78 L 176.92 175.86 L 176.56 176.31 L 175.98 176.33 L 175.30 176.00 L 174.66 175.42 L 173.99 174.55 L 173.04 173.67 L 171.99 173.00 L 170.85 172.49 L 169.54 172.10 L 168.72 171.72 L 168.02 171.07 L 167.09 169.50 L 166.77 168.28 L 166.52 167.74 L 165.02 165.90 L 160.68 161.34 L 154.34 158.49 Z" fill="#ffe0c4" fill-rule="evenodd" group-id="1,2,3,8,14" id="路径-460" node-id="64" stroke="none" target-height="23.499527" target-width="34.328888" target-x="154.33589" target-y="152.83229"/><path d="M 168.25 156.70 L 164.34 158.07 L 162.12 159.42 L 160.70 160.71 L 159.88 161.94 L 154.25 163.45 L 155.33 167.48 L 156.53 170.09 L 157.79 171.67 L 159.11 172.51 L 165.67 167.98 L 166.65 168.94 L 168.28 169.74 L 170.80 170.33 L 174.53 170.62 L 177.35 173.18 L 179.10 174.53 L 180.22 175.15 L 180.87 175.28 L 181.26 175.12 L 181.31 174.63 L 180.31 173.07 L 176.58 169.11 L 175.79 167.97 L 175.75 167.57 L 176.05 167.45 L 178.40 168.25 L 180.12 168.83 L 182.11 169.21 L 182.84 169.14 L 182.85 168.88 L 181.95 168.12 L 178.41 166.09 L 182.16 166.45 L 182.58 166.08 L 182.53 165.64 L 181.82 164.93 L 179.85 163.89 L 174.68 161.89 L 177.26 162.63 L 178.46 162.69 L 178.92 162.44 L 179.00 161.97 L 178.70 161.41 L 177.70 160.65 L 175.50 159.61 L 171.39 158.20 L 172.47 157.02 L 173.53 154.83 L 173.80 153.28 L 173.70 152.25 L 173.29 151.48 L 172.74 151.16 L 170.48 154.42 L 169.07 156.06 L 168.25 156.70 Z" fill="#f7b781" fill-rule="evenodd" group-id="1,2,3,8,14" id="路径-459" node-id="65" stroke="none" target-height="24.113617" target-width="28.599762" target-x="154.24933" target-y="151.16202"/><path d="M 211.85 78.06 L 210.05 120.03 L 268.82 111.02 L 270.27 70.12 Z" fill="#ffffff" fill-rule="evenodd" group-id="1,2,3,8,15,42" id="路径-444" node-id="67" stroke="none" target-height="49.9088" target-width="60.2126" target-x="210.05443" target-y="70.12097"/><path d="M 255.17 88.86 L 249.67 92.48 L 245.58 96.00 L 241.78 98.85 L 238.25 101.29 L 235.63 102.77 L 232.94 103.99 L 231.88 104.13 L 231.34 104.02 L 231.07 103.79 L 231.08 103.45 L 231.67 102.75 L 233.70 101.18 L 237.55 98.54 L 237.19 97.84 L 230.07 101.75 L 228.25 102.58 L 227.38 102.67 L 226.64 102.52 L 226.26 102.14 L 226.53 101.46 L 228.25 100.23 L 230.38 98.87 L 231.33 98.10 L 230.55 98.41 L 228.72 99.37 L 226.19 100.29 L 225.25 100.39 L 224.55 100.23 L 224.17 99.87 L 224.32 99.41 L 225.95 98.15 L 228.72 96.49 L 230.20 95.86 L 231.38 95.60 L 229.02 96.25 L 227.14 96.91 L 224.45 97.62 L 223.70 97.64 L 223.21 97.41 L 223.11 97.02 L 223.84 96.16 L 225.47 95.15 L 228.23 93.62 L 231.45 91.87 L 232.14 91.85 L 233.12 91.91 L 233.41 91.90 L 232.42 91.39 L 232.15 90.87 L 232.25 90.35 L 232.57 90.12 L 235.40 89.44 L 237.22 88.64 L 238.26 88.12 L 239.53 87.72 L 242.01 87.37 L 243.07 87.45 L 243.66 87.68 L 248.30 84.07 L 255.17 88.86 Z" fill="#f7b781" fill-rule="evenodd" group-id="1,2,3,8,15" id="路径-462" node-id="68" stroke="none" target-height="20.05391" target-width="32.058105" target-x="223.11165" target-y="84.07451"/><path d="M 240.04 87.84 L 238.37 86.52 L 237.35 85.87 L 236.31 85.40 L 235.26 85.20 L 234.34 85.41 L 233.76 85.96 L 233.72 86.56 L 234.05 87.20 L 234.68 87.86 L 235.44 88.39 L 236.19 88.71 L 237.38 89.30 L 238.55 90.17 L 238.87 90.69 L 238.87 91.25 L 238.46 91.67 L 237.48 91.93 L 234.95 91.88 L 232.63 91.43 L 230.25 90.76 L 227.10 90.28 L 225.65 90.28 L 224.83 90.51 L 224.47 90.97 L 224.85 91.54 L 226.86 92.51 L 234.73 95.23 L 228.27 94.51 L 226.97 94.97 L 226.70 95.30 L 226.91 95.62 L 228.55 96.20 L 236.03 97.85 L 227.18 97.77 L 225.96 98.61 L 225.87 98.99 L 226.50 99.27 L 228.86 99.47 L 236.00 99.59 L 229.12 100.10 L 228.30 100.69 L 228.26 101.00 L 228.78 101.26 L 230.80 101.47 L 234.19 101.59 L 237.80 101.58 L 240.51 101.39 L 247.70 100.02 L 253.82 100.53 L 254.93 99.64 L 255.64 98.41 L 255.95 96.71 L 255.86 94.56 L 255.59 93.43 L 255.09 92.40 L 250.42 92.22 L 249.68 92.07 L 247.55 90.32 L 245.25 89.06 L 242.77 88.23 L 240.04 87.84 Z" fill="#ffcca1" fill-rule="evenodd" group-id="1,2,3,8,15" id="路径-461" node-id="69" stroke="none" target-height="16.39106" target-width="31.483124" target-x="224.46762" target-y="85.2022"/><path d="M 209.83 134.73 L 208.04 176.70 L 266.90 165.14 L 268.34 124.24 Z" fill="#ffffff" fill-rule="evenodd" group-id="1,2,3,8,16,43" id="路径-444" node-id="71" stroke="none" target-height="52.46267" target-width="60.302643" target-x="208.03574" target-y="124.242134"/><path d="M 233.92 146.66 L 231.80 145.34 L 229.73 144.10 L 228.55 143.78 L 227.59 143.97 L 227.56 144.40 L 228.09 145.15 L 229.73 146.51 L 233.39 148.80 L 232.93 149.11 L 229.66 147.31 L 227.41 145.54 L 225.91 144.84 L 224.91 144.79 L 224.19 145.20 L 226.13 147.07 L 228.28 148.78 L 229.41 149.67 L 229.13 149.64 L 228.28 149.21 L 226.13 147.94 L 223.86 146.77 L 222.87 146.50 L 222.33 146.62 L 222.19 146.99 L 222.67 147.76 L 224.59 149.39 L 229.36 152.52 L 222.17 149.32 L 221.66 149.29 L 221.32 149.47 L 221.20 149.80 L 221.45 150.40 L 223.40 152.03 L 226.88 154.21 L 228.78 155.09 L 230.26 155.48 L 228.95 156.18 L 227.89 156.94 L 227.38 157.54 L 227.20 158.14 L 227.33 158.80 L 228.51 158.74 L 232.78 157.89 L 235.04 158.18 L 236.97 157.96 L 238.64 157.27 L 239.29 157.18 L 240.39 157.30 L 242.39 157.89 L 246.99 160.05 L 248.60 158.90 L 249.75 157.56 L 250.49 155.99 L 250.83 154.14 L 250.73 151.91 L 247.38 151.24 L 245.42 150.65 L 233.92 146.66 Z" fill="#f7b781" fill-rule="evenodd" group-id="1,2,3,8,16" id="路径-464" node-id="72" stroke="none" target-height="16.26886" target-width="29.636642" target-x="221.19502" target-y="143.77911"/><path d="M 250.34 137.84 L 243.82 140.34 L 240.75 140.90 L 238.25 141.79 L 236.23 142.97 L 234.61 144.43 L 233.34 146.20 L 232.84 147.48 L 232.66 148.53 L 232.72 149.52 L 232.96 150.30 L 233.75 151.55 L 234.50 152.44 L 234.71 152.48 L 234.89 152.32 L 234.96 151.51 L 235.31 152.23 L 235.64 152.63 L 236.02 152.85 L 236.32 152.84 L 236.50 152.60 L 236.57 152.03 L 236.55 150.93 L 236.63 151.68 L 236.84 152.33 L 237.20 152.80 L 237.59 152.89 L 237.97 152.61 L 238.51 151.50 L 238.69 150.72 L 238.81 148.89 L 240.11 146.32 L 240.64 146.38 L 242.02 146.00 L 242.31 147.22 L 242.02 148.28 L 241.31 149.18 L 240.55 149.80 L 239.35 150.55 L 238.54 151.61 L 238.34 152.21 L 238.44 152.54 L 238.89 152.70 L 239.53 152.67 L 240.51 152.43 L 240.61 152.43 L 242.44 151.52 L 244.54 149.83 L 246.45 147.68 L 248.21 144.96 L 252.43 143.56 L 252.54 141.96 L 252.23 140.49 L 251.52 139.15 L 250.34 137.84 Z" fill="#ffcca1" fill-rule="evenodd" group-id="1,2,3,8,16" id="路径-463" node-id="73" stroke="none" target-height="15.045914" target-width="19.886353" target-x="232.65646" target-y="137.84245"/><path d="M 65.52 100.35 L 65.53 142.05 L 123.88 132.61 L 123.87 91.50 Z" fill="#ffffff" fill-rule="evenodd" group-id="1,2,3,8,17,44" id="路径-444" node-id="75" stroke="none" target-height="50.55751" target-width="58.368263" target-x="65.51528" target-y="91.49605"/><path d="M 106.79 108.16 L 112.18 108.25 L 112.92 116.16 L 109.06 116.75 L 106.27 117.57 L 104.30 118.58 L 102.56 119.46 L 99.61 120.52 L 92.76 122.37 L 86.09 123.74 L 84.70 123.81 L 83.79 123.60 L 83.27 123.17 L 83.39 122.63 L 81.41 122.83 L 79.17 122.59 L 78.39 122.21 L 78.18 121.71 L 78.39 121.36 L 78.76 121.19 L 79.92 120.82 L 78.25 120.79 L 77.42 120.55 L 77.07 120.22 L 77.01 119.79 L 77.27 119.38 L 78.04 118.93 L 77.84 118.35 L 77.83 117.86 L 78.12 117.24 L 78.74 116.71 L 80.21 116.10 L 86.25 114.37 L 84.15 114.46 L 83.33 114.20 L 83.12 113.76 L 83.64 113.20 L 85.52 111.95 L 90.04 109.50 L 93.03 108.17 L 95.97 107.37 L 98.89 107.08 L 101.85 107.28 L 106.79 108.16 Z" fill="#f7b781" fill-rule="evenodd" group-id="1,2,3,8,17,45" id="路径-448" node-id="77" stroke="none" target-height="16.724625" target-width="35.908577" target-x="77.00727" target-y="107.081985"/><path d="M 109.82 109.36 L 110.64 117.36 L 107.70 118.01 L 106.78 118.33 L 105.41 119.06 L 102.87 120.36 L 100.12 121.68 L 98.13 122.43 L 95.50 122.64 L 91.23 122.71 L 86.90 122.69 L 84.08 122.63 L 83.18 122.48 L 82.73 122.24 L 82.49 121.89 L 82.48 121.56 L 82.95 121.09 L 84.11 120.89 L 80.68 120.70 L 79.62 120.42 L 79.23 120.05 L 79.39 119.70 L 80.44 119.41 L 78.57 119.38 L 77.81 119.26 L 77.45 119.04 L 77.28 118.77 L 77.26 118.46 L 77.42 118.16 L 78.20 117.74 L 79.33 117.46 L 81.11 117.25 L 80.30 117.21 L 79.70 116.95 L 79.51 116.53 L 80.09 115.80 L 80.96 115.37 L 82.80 114.77 L 87.01 113.55 L 89.06 112.88 L 90.37 112.32 L 88.15 112.81 L 86.51 112.89 L 85.58 112.69 L 85.14 112.32 L 85.03 111.77 L 85.70 111.32 L 89.74 109.90 L 93.77 108.59 L 96.87 108.05 L 99.23 108.09 L 102.48 108.73 L 103.87 109.35 L 109.82 109.36 Z" fill="#ffc594" fill-rule="evenodd" group-id="1,2,3,8,17,45,46" node-id="298" stroke="none" target-height="14.655151" target-width="33.3752" target-x="77.261314" target-y="108.05159"/><g clip-path="url(#mask-6_10)" group-id="1,2,3,8,17,45,47" node-id="301"><path d="M 92.68 116.23 L 87.29 116.54 L 83.00 116.93 L 81.16 117.18 L 84.28 117.03 L 92.81 116.51 L 92.95 116.36 L 92.68 116.23 Z" fill="#f59f57" fill-rule="evenodd" group-id="1,2,3,8,17,45,47" id="路径-447" node-id="81" stroke="none" target-height="0.94696045" target-width="11.792183" target-x="81.15918" target-y="116.22826"/></g><g clip-path="url(#mask-6_11)" group-id="1,2,3,8,17,45,48" node-id="305"><path d="M 92.97 118.38 L 87.29 118.71 L 82.42 119.15 L 80.29 119.42 L 81.97 119.35 L 86.61 119.06 L 93.10 118.66 L 93.25 118.51 L 92.97 118.38 Z" fill="#f59f57" fill-rule="evenodd" group-id="1,2,3,8,17,45,48" id="路径-447" node-id="82" stroke="none" target-height="1.0359192" target-width="12.961449" target-x="80.2857" target-y="118.38053"/></g><g clip-path="url(#mask-6_12)" group-id="1,2,3,8,17,45,49" node-id="309"><path d="M 92.61 120.25 L 87.22 120.55 L 82.92 120.95 L 81.09 121.19 L 84.21 121.05 L 92.73 120.52 L 92.88 120.37 L 92.61 120.25 Z" fill="#f59f57" fill-rule="evenodd" group-id="1,2,3,8,17,45,49" id="路径-447" node-id="83" stroke="none" target-height="0.9469528" target-width="11.792183" target-x="81.08665" target-y="120.24624"/></g><g clip-path="url(#mask-6_13)" group-id="1,2,3,8,17,45,50" node-id="313"><path d="M 93.44 110.90 L 91.18 111.97 L 89.99 112.46 L 90.66 112.26 L 92.26 111.68 L 93.74 111.01 L 93.74 110.88 L 93.44 110.90 Z" fill="#f59f57" fill-rule="evenodd" group-id="1,2,3,8,17,45,50" id="路径-447" node-id="84" stroke="none" target-height="1.5850296" target-width="3.752884" target-x="89.991806" target-y="110.878426"/></g><g clip-path="url(#mask-6_14)" group-id="1,2,3,8,17,45,51" node-id="317"><path d="M 87.28 110.61 L 88.18 111.06 L 88.49 111.51 L 88.45 112.01 L 87.57 112.59 L 86.38 112.78 L 84.73 112.50 L 85.15 110.62 L 87.28 110.61 Z" fill="#ffd8b2" fill-rule="evenodd" group-id="1,2,3,8,17,45,51" id="路径-446" node-id="85" stroke="none" target-height="2.171112" target-width="3.7640762" target-x="84.72926" target-y="110.613335"/></g><g clip-path="url(#mask-6_15)" group-id="1,2,3,8,17,45,52" node-id="321"><path d="M 81.53 115.14 L 82.56 115.66 L 82.86 116.11 L 82.73 116.65 L 81.98 117.12 L 81.13 117.26 L 79.44 117.00 L 79.51 115.53 L 81.53 115.14 Z" fill="#ffd8b2" fill-rule="evenodd" group-id="1,2,3,8,17,45,52" id="路径-446" node-id="86" stroke="none" target-height="2.1178513" target-width="3.422554" target-x="79.44239" target-y="115.137505"/></g><g clip-path="url(#mask-6_16)" group-id="1,2,3,8,17,45,53" node-id="325"><path d="M 78.81 117.54 L 79.30 117.67 L 79.74 118.01 L 79.96 118.47 L 79.78 119.03 L 79.04 119.51 L 78.18 119.63 L 76.49 119.38 L 76.56 117.91 L 78.81 117.54 Z" fill="#ffd8b2" fill-rule="evenodd" group-id="1,2,3,8,17,45,53" id="路径-446" node-id="87" stroke="none" target-height="2.0878372" target-width="3.4648895" target-x="76.49186" target-y="117.54397"/></g><g clip-path="url(#mask-6_17)" group-id="1,2,3,8,17,45,54" node-id="329"><path d="M 81.38 119.32 L 81.90 119.41 L 82.25 119.70 L 82.36 120.10 L 82.11 120.62 L 81.73 120.81 L 81.22 120.84 L 79.97 120.65 L 79.29 120.30 L 79.09 119.51 L 81.38 119.32 Z" fill="#ffd8b2" fill-rule="evenodd" group-id="1,2,3,8,17,45,54" id="路径-446" node-id="88" stroke="none" target-height="1.5216293" target-width="3.2719269" target-x="79.0896" target-y="119.32023"/></g><g clip-path="url(#mask-6_18)" group-id="1,2,3,8,17,45,55" node-id="333"><path d="M 83.97 120.89 L 84.48 121.00 L 84.83 121.31 L 84.94 121.75 L 84.68 122.27 L 83.99 122.57 L 82.94 122.44 L 82.52 122.26 L 82.39 121.88 L 82.59 121.17 L 82.66 121.01 L 83.97 120.89 Z" fill="#ffd8b2" fill-rule="evenodd" group-id="1,2,3,8,17,45,55" id="路径-446" node-id="89" stroke="none" target-height="1.6731339" target-width="2.546997" target-x="82.39015" target-y="120.893906"/></g><text align="center" editable="true" ellipsis="false" fill="#ffffff" flags="1" font-family="'Noto Sans CJK SC'" font-size="14" font-stretch="normal" font-style="normal" font-weight="500" group-id="1,2,3,9" height="20.720001" id="勤" letter-spacing="0" node-id="91" stroke="none" target-x="66.93621" target-y="66.44409" vertical-align="center" width="14" x="66.93621" xml:space="preserve" y="82.68409">勤</text><text align="center" editable="true" ellipsis="false" fill="#ffffff" flags="1" font-family="'Noto Sans CJK SC'" font-size="14" font-stretch="normal" font-style="normal" font-weight="500" group-id="1,2,3,9" height="20.720001" id="洗" letter-spacing="0" node-id="94" stroke="none" target-x="94.48674" target-y="60.44722" vertical-align="center" width="14" x="94.48674" xml:space="preserve" y="76.68722">洗</text><text align="center" editable="true" ellipsis="false" fill="#ffffff" flags="1" font-family="'Noto Sans CJK SC'" font-size="14" font-stretch="normal" font-style="normal" font-weight="500" group-id="1,2,3,9" height="20.720001" id="手" letter-spacing="0" node-id="97" stroke="none" target-x="121.41344" target-y="55.647026" vertical-align="center" width="14" x="121.41344" xml:space="preserve" y="71.887024">手</text><text align="center" editable="true" ellipsis="false" fill="#ffffff" flags="1" font-family="'Noto Sans CJK SC'" font-size="14" font-stretch="normal" font-style="normal" font-weight="500" group-id="1,2,3,9" height="20.720001" id="树" letter-spacing="0" node-id="100" stroke="none" target-x="189.98071" target-y="43.14299" vertical-align="center" width="14" x="189.98071" xml:space="preserve" y="59.382988">树</text><text align="center" editable="true" ellipsis="false" fill="#ffffff" flags="1" font-family="'Noto Sans CJK SC'" font-size="14" font-stretch="normal" font-style="normal" font-weight="500" group-id="1,2,3,9" height="20.720001" id="新" letter-spacing="0" node-id="103" stroke="none" target-x="218.84036" target-y="38.275436" vertical-align="center" width="14" x="218.84036" xml:space="preserve" y="54.515434">新</text><text align="center" editable="true" ellipsis="false" fill="#ffffff" flags="1" font-family="'Noto Sans CJK SC'" font-size="14" font-stretch="normal" font-style="normal" font-weight="500" group-id="1,2,3,9" height="20.720001" id="风" letter-spacing="0" node-id="106" stroke="none" target-x="245.76706" target-y="33.475243" vertical-align="center" width="14" x="245.76706" xml:space="preserve" y="49.71524">风</text><path d="M 303.26 182.48 L 304.69 181.18 L 306.70 180.14 L 309.43 179.41 L 313.09 179.08 L 316.00 179.43 L 318.52 180.23 L 320.72 181.47 L 322.66 183.16 L 322.57 185.83 L 319.30 184.02 L 316.11 182.94 L 312.97 182.52 L 309.80 182.72 L 306.55 183.58 L 303.16 185.15 L 303.26 182.48 Z" fill="#a79494" fill-rule="evenodd" group-id="1,2,3,10,18" id="路径-473" node-id="111" stroke="none" target-height="6.7510834" target-width="19.496735" target-x="303.16443" target-y="179.08017"/><path d="M 303.66 185.17 L 304.11 183.64 L 304.92 182.42 L 306.10 181.44 L 307.75 180.70 L 310.01 180.24 L 313.05 180.15 L 316.09 180.46 L 318.29 181.08 L 319.85 181.93 L 320.91 182.98 L 321.58 184.25 L 321.86 185.81 L 303.66 185.17 Z" fill="#d8d8d8" fill-rule="evenodd" group-id="1,2,3,10,18" id="路径-474" node-id="112" stroke="none" target-height="5.6614227" target-width="18.199188" target-x="303.6604" target-y="180.14511"/><path d="M 303.26 182.48 L 306.51 183.96 L 309.70 184.87 L 312.88 185.24 L 316.06 185.09 L 319.31 184.41 L 322.66 183.16 L 322.56 185.95 L 319.24 186.97 L 315.99 187.53 L 312.79 187.63 L 309.60 187.30 L 306.40 186.52 L 303.16 185.27 L 303.26 182.48 Z" fill="#a79494" fill-rule="evenodd" group-id="1,2,3,10,18" id="路径-473" node-id="113" stroke="none" target-height="5.1544647" target-width="19.500854" target-x="303.1603" target-y="182.48"/><path d="M 305.15 183.93 L 312.83 186.50 L 320.67 184.43 L 319.37 195.37 L 317.27 196.54 L 314.98 197.21 L 312.46 197.38 L 309.97 197.03 L 307.92 196.20 L 306.22 194.91 L 305.15 183.93 Z" fill="#a79494" fill-rule="evenodd" group-id="1,2,3,10,18" id="路径-473" node-id="114" stroke="none" target-height="13.449738" target-width="15.52417" target-x="305.14972" target-y="183.9335"/><path d="M 303.56 109.81 L 305.06 120.28 L 307.49 111.84 L 308.88 111.89 L 307.31 116.96 L 308.70 117.01 L 308.67 117.90 L 307.28 117.85 L 305.21 123.78 L 312.91 184.16 L 310.65 184.08 L 301.86 111.16 Z" fill="#729dd3" fill-rule="evenodd" group-id="1,2,3,10" id="路径-472" node-id="115" stroke="none" target-height="74.34877" target-width="11.049438" target-x="301.8631" target-y="109.81395"/><path d="M 330.70 139.98 L 325.44 159.28 L 326.96 157.95 L 331.94 140.02 Z" fill="#729dd3" fill-rule="evenodd" group-id="1,2,3,10" id="路径-469" node-id="116" stroke="none" target-height="19.295639" target-width="6.5004272" target-x="325.4378" target-y="139.98116"/><path d="M 330.06 155.54 L 315.45 167.26 L 315.40 168.67 L 331.37 156.34 Z" fill="#729dd3" fill-rule="evenodd" group-id="1,2,3,10" id="路径-470" node-id="117" stroke="none" target-height="13.123688" target-width="15.972107" target-x="315.39642" target-y="155.5422"/><path d="M 317.76 133.85 L 314.89 174.39 L 316.73 172.59 L 317.15 174.05 L 314.83 176.27 L 314.36 184.21 L 312.91 184.16 L 316.39 139.16 L 314.56 136.84 L 314.94 136.20 L 316.50 137.77 L 316.82 133.65 Z" fill="#729dd3" fill-rule="evenodd" group-id="1,2,3,10" id="路径-471" node-id="118" stroke="none" target-height="50.56076" target-width="4.8504944" target-x="312.91254" target-y="133.65247"/><path d="M 280.19 101.43 L 277.10 104.67 L 274.61 107.81 L 272.67 110.87 L 270.25 115.62 L 268.53 119.87 L 269.92 121.03 L 272.54 122.37 L 275.59 123.42 L 279.37 124.27 L 283.34 124.69 L 287.48 124.60 L 290.22 124.20 L 292.82 123.47 L 295.31 122.41 L 297.57 120.98 L 299.57 119.11 L 301.32 116.74 L 302.60 114.09 L 303.50 110.77 L 303.96 106.62 L 303.84 104.14 L 303.44 102.24 L 302.70 101.21 L 301.52 100.23 L 299.79 99.31 L 296.92 98.36 L 293.45 97.80 L 289.86 97.77 L 286.29 98.31 L 284.01 99.04 L 281.99 100.08 L 280.19 101.43 Z" fill="#a6cdff" fill-rule="evenodd" group-id="1,2,3,10" id="路径-465" node-id="119" stroke="none" target-height="26.920532" target-width="35.43112" target-x="268.5329" target-y="97.76887"/><path d="M 302.59 138.70 L 298.20 136.80 L 294.56 135.69 L 291.02 135.07 L 287.74 134.92 L 287.25 136.50 L 287.08 139.32 L 287.36 142.41 L 288.17 145.94 L 288.99 148.26 L 290.08 150.43 L 291.44 152.47 L 293.09 154.24 L 295.04 155.61 L 297.34 156.60 L 299.14 156.99 L 301.19 157.06 L 303.56 156.77 L 306.30 156.04 L 306.84 155.84 L 307.53 155.58 L 307.91 154.60 L 308.17 152.56 L 308.15 150.26 L 307.82 147.53 L 307.15 144.82 L 306.08 142.31 L 305.12 140.80 L 303.96 139.61 L 302.59 138.70 Z" fill="#a6cdff" fill-rule="evenodd" group-id="1,2,3,10,19" id="路径-465" node-id="120" stroke="none" target-height="22.145508" target-width="21.096283" target-x="287.07855" target-y="134.91708"/><path d="M 328.82 117.67 L 328.17 115.06 L 327.41 112.94 L 326.41 111.01 L 325.09 109.26 L 323.44 107.68 L 321.17 106.01 L 320.09 106.81 L 318.90 108.11 L 317.56 110.06 L 315.91 113.26 L 314.49 117.16 L 313.83 119.91 L 313.45 122.68 L 313.37 125.49 L 313.66 128.26 L 314.40 130.82 L 315.57 133.22 L 316.74 134.80 L 318.25 136.21 L 320.14 137.45 L 322.48 138.52 L 323.89 138.47 L 325.11 137.94 L 326.22 136.88 L 327.49 134.71 L 328.48 131.66 L 329.07 128.31 L 329.33 124.65 L 329.24 120.99 L 328.82 117.67 Z" fill="#93b9e9" fill-rule="evenodd" group-id="1,2,3,10,20" id="路径-465" node-id="121" stroke="none" target-height="32.513885" target-width="15.958496" target-x="313.3708" target-y="106.008484"/><path d="M 316.64 109.55 L 318.20 106.88 L 319.20 104.36 L 319.78 101.74 L 319.98 98.88 L 319.08 98.45 L 317.81 98.28 L 316.03 98.45 L 313.39 99.22 L 310.50 100.63 L 308.68 101.87 L 307.11 103.31 L 305.74 104.96 L 304.73 106.79 L 304.20 108.78 L 304.15 110.97 L 304.48 111.82 L 304.98 112.64 L 305.63 113.32 L 306.36 113.74 L 307.68 113.73 L 309.66 113.36 L 311.69 112.71 L 313.70 111.83 L 315.49 110.71 L 316.64 109.55 Z" fill="#93b9e9" fill-rule="evenodd" group-id="1,2,3,10,21" id="路径-465" node-id="122" stroke="none" target-height="15.460686" target-width="15.825226" target-x="304.15088" target-y="98.28281"/><path d="M 343.42 135.09 L 343.04 133.86 L 341.87 132.14 L 340.17 130.60 L 337.71 129.24 L 335.87 128.66 L 333.70 128.41 L 331.13 128.54 L 328.63 129.10 L 325.73 130.27 L 322.34 132.21 L 320.14 134.17 L 318.95 135.76 L 318.47 137.06 L 318.51 138.20 L 319.02 139.26 L 322.25 140.79 L 325.08 141.59 L 327.59 141.80 L 329.86 141.48 L 331.76 140.59 L 332.88 139.85 L 334.83 138.17 L 336.03 137.31 L 338.11 136.18 L 339.29 135.81 L 340.77 135.56 L 343.25 135.34 L 343.76 135.24 L 343.42 135.09 Z" fill="#a6cdff" fill-rule="evenodd" group-id="1,2,3,10" id="路径-466" node-id="123" stroke="none" target-height="13.388901" target-width="25.286102" target-x="318.46933" target-y="128.41043"/><path d="M 327.79 157.41 L 327.56 154.31 L 327.81 151.61 L 328.48 149.25 L 329.56 147.16 L 331.06 145.29 L 333.03 143.63 L 335.55 142.17 L 338.73 140.92 L 340.75 140.48 L 342.83 140.41 L 345.00 140.72 L 347.05 141.42 L 349.01 142.63 L 350.91 144.40 L 352.43 146.51 L 353.74 149.35 L 354.79 153.10 L 347.21 152.99 L 341.75 153.21 L 336.95 153.78 L 333.88 154.55 L 330.35 155.97 L 327.79 157.41 Z" fill="#6897d2" fill-rule="evenodd" group-id="1,2,3,10" id="路径-467" node-id="124" stroke="none" target-height="16.998169" target-width="27.233429" target-x="327.56067" target-y="140.41275"/><path d="M 327.45 157.40 L 327.73 154.70 L 328.49 152.29 L 329.71 150.11 L 331.43 148.12 L 333.73 146.31 L 336.71 144.67 L 340.51 143.23 L 343.64 142.58 L 346.47 142.50 L 348.24 142.86 L 349.88 143.69 L 351.44 145.07 L 352.64 146.79 L 353.78 149.38 L 354.79 153.12 L 347.11 153.01 L 341.58 153.22 L 336.73 153.79 L 333.62 154.56 L 330.04 155.97 L 327.45 157.40 Z" fill="#a6cdff" fill-rule="evenodd" group-id="1,2,3,10" id="路径-467" node-id="125" stroke="none" target-height="14.899231" target-width="27.343353" target-x="327.44986" target-y="142.49988"/><path d="M 308.68 147.23 L 309.15 145.11 L 309.84 143.41 L 310.72 142.04 L 311.86 140.90 L 313.12 140.10 L 314.54 139.62 L 316.04 139.47 L 317.65 139.66 L 319.40 140.23 L 320.44 140.86 L 321.40 141.96 L 322.29 143.68 L 323.17 146.59 L 323.66 150.29 L 323.66 154.18 L 323.13 158.22 L 322.45 160.87 L 321.50 163.32 L 320.29 165.60 L 318.76 167.64 L 316.92 169.29 L 314.75 170.59 L 312.62 168.19 L 311.00 165.76 L 309.83 163.29 L 308.98 160.68 L 308.44 158.04 L 308.20 155.36 L 308.25 151.29 L 308.68 147.23 Z" fill="#93b9e9" fill-rule="evenodd" group-id="1,2,3,10" id="路径-468" node-id="126" stroke="none" target-height="31.121582" target-width="15.461578" target-x="308.20135" target-y="139.46964"/><path d="M 332.00 196.77 L 333.35 195.40 L 335.24 194.28 L 337.83 193.46 L 341.32 193.00 L 344.11 193.25 L 346.55 193.96 L 348.71 195.13 L 350.63 196.77 L 350.63 199.47 L 348.21 198.11 L 345.87 197.18 L 343.58 196.64 L 341.32 196.47 L 339.05 196.64 L 336.76 197.18 L 334.42 198.11 L 332.00 199.47 L 332.00 196.77 Z" fill="#a79494" fill-rule="evenodd" group-id="1,2,3,11,22" id="路径-473" node-id="129" stroke="none" target-height="6.472992" target-width="18.630737" target-x="332" target-y="192.997"/><path d="M 332.48 199.47 L 332.87 197.89 L 333.61 196.63 L 334.72 195.60 L 336.28 194.81 L 338.43 194.27 L 341.32 194.07 L 344.21 194.28 L 346.33 194.81 L 347.86 195.61 L 348.93 196.63 L 349.62 197.89 L 349.95 199.47 L 332.48 199.47 Z" fill="#d8d8d8" fill-rule="evenodd" group-id="1,2,3,11,22" id="路径-474" node-id="130" stroke="none" target-height="5.3979797" target-width="17.474518" target-x="332.47623" target-y="194.072"/><path d="M 332.00 196.77 L 335.17 198.15 L 338.27 198.95 L 341.32 199.21 L 344.36 198.95 L 347.46 198.15 L 350.63 196.77 L 350.63 199.59 L 347.48 200.74 L 344.38 201.41 L 341.32 201.63 L 338.25 201.41 L 335.16 200.74 L 332.00 199.59 L 332.00 196.77 Z" fill="#a79494" fill-rule="evenodd" group-id="1,2,3,11,22" id="路径-473" node-id="131" stroke="none" target-height="4.861252" target-width="18.630737" target-x="332" target-y="196.771"/><path d="M 333.86 198.17 L 341.32 200.49 L 348.77 198.13 L 347.88 209.19 L 345.90 210.46 L 343.73 211.21 L 341.32 211.47 L 338.93 211.21 L 336.94 210.45 L 335.26 209.19 L 333.86 198.17 Z" fill="#a79494" fill-rule="evenodd" group-id="1,2,3,11,22" id="路径-473" node-id="132" stroke="none" target-height="13.345367" target-width="14.904602" target-x="333.86307" target-y="198.12766"/><path d="M 337.86 197.57 L 336.73 186.97 L 336.38 179.04 L 336.63 173.27 L 337.29 169.21 L 338.22 166.46 L 339.34 164.67 L 340.60 163.59 L 341.16 163.44 L 341.93 163.51 L 342.67 163.89 L 343.52 164.84 L 344.18 166.20 L 344.80 168.60 L 345.12 171.46 L 345.18 175.81 L 344.88 180.56 L 344.78 182.49 L 344.79 182.97 L 344.97 183.21 L 345.31 183.28 L 345.67 183.13 L 346.03 182.68 L 346.82 180.39 L 348.67 174.55 L 349.14 173.70 L 349.70 173.28 L 350.41 173.20 L 351.54 173.60 L 352.72 174.68 L 353.55 176.19 L 353.96 178.24 L 353.88 179.67 L 353.41 181.28 L 352.49 183.12 L 350.38 186.05 L 348.53 187.90 L 346.91 188.95 L 345.44 189.40 L 344.06 189.36 L 343.65 197.57 L 337.86 197.57 Z" fill="#93b9e9" fill-rule="evenodd" group-id="1,2,3,11,23" node-id="409" stroke="none" target-height="34.132828" target-width="17.574738" target-x="336.3822" target-y="163.44145"/><g clip-path="url(#mask-8_6)" group-id="1,2,3,11,24" node-id="412"><path d="M 337.61 166.90 L 337.55 172.65 L 337.69 180.77 L 338.65 197.57 L 339.53 197.57 L 338.68 183.96 L 338.42 173.22 L 338.65 164.90 L 338.26 164.84 L 337.97 165.16 L 337.67 166.25 L 337.61 166.90 Z" fill="#cbe2ff" fill-rule="evenodd" group-id="1,2,3,11,24" id="路径-477" node-id="136" stroke="none" target-height="32.733795" target-width="1.9769287" target-x="337.55185" target-y="164.84048"/></g><g clip-path="url(#mask-8_7)" group-id="1,2,3,11,25" node-id="416"><path d="M 339.55 163.59 L 339.51 168.59 L 339.56 175.22 L 339.68 181.64 L 340.64 198.44 L 341.76 198.44 L 341.14 182.51 L 341.03 170.74 L 341.29 162.34 L 340.84 162.23 L 340.44 162.40 L 339.80 163.14 L 339.55 163.59 Z" fill="#cbe2ff" fill-rule="evenodd" group-id="1,2,3,11,25" id="路径-477" node-id="137" stroke="none" target-height="36.21376" target-width="2.2494812" target-x="339.50757" target-y="162.22678"/></g><g clip-path="url(#mask-8_8)" group-id="1,2,3,11,26" node-id="420"><path d="M 342.30 163.15 L 342.26 168.15 L 342.31 174.78 L 342.43 181.19 L 342.43 198.94 L 343.14 197.99 L 343.11 177.27 L 343.56 163.67 L 342.59 163.18 L 342.30 163.15 Z" fill="#cbe2ff" fill-rule="evenodd" group-id="1,2,3,11,26" id="路径-477" node-id="138" stroke="none" target-height="35.79532" target-width="1.3045349" target-x="342.257" target-y="163.14629"/></g><g clip-path="url(#mask-8_9)" group-id="1,2,3,11,27" node-id="424"><path d="M 349.66 172.58 L 349.63 175.30 L 349.17 177.89 L 348.30 180.40 L 346.98 182.84 L 345.17 185.25 L 343.91 186.08 L 342.91 186.42 L 342.91 187.74 L 344.88 186.44 L 346.60 184.76 L 348.08 182.66 L 349.31 180.06 L 350.28 176.89 L 350.93 173.03 L 350.78 172.63 L 350.41 172.47 L 349.66 172.58 Z" fill="#cbe2ff" fill-rule="evenodd" group-id="1,2,3,11,27" id="路径-478" node-id="139" stroke="none" target-height="15.268951" target-width="8.0242" target-x="342.90903" target-y="172.46915"/></g><g clip-path="url(#mask-8_10)" group-id="1,2,3,11,28" node-id="428"><path d="M 352.29 173.57 L 351.85 176.93 L 351.08 179.84 L 349.99 182.37 L 348.61 184.58 L 346.92 186.49 L 345.36 187.85 L 344.08 188.75 L 344.04 189.58 L 346.55 187.95 L 348.67 185.99 L 350.42 183.67 L 351.83 180.94 L 352.89 177.75 L 353.56 174.02 L 353.40 173.62 L 353.04 173.46 L 352.29 173.57 Z" fill="#cbe2ff" fill-rule="evenodd" group-id="1,2,3,11,28" id="路径-478" node-id="140" stroke="none" target-height="16.119705" target-width="9.520599" target-x="344.03568" target-y="173.46039"/></g></g></g></g></svg>